{"title":"PublicAgent.E211.Meggie.XXX.1080p.MOVKTR.mov","uid":10614794,"size":1395712626,"categoryP":"porn","categoryS":"movies","magnet":"?xt=urn:btih:105a3f57d0a1d94007c2fa3895dce4b4ee49dd63&amp;dn=PublicAgent.E211.Meggie.XXX.1080p.MOVKTR.mov&amp;tr=udp%3A%2F%2Ftracker.openbittorrent.com%3A80&amp;tr=udp%3A%2F%2Fopen.demonii.com%3A1337&amp;tr=udp%3A%2F%2Ftracker.coppersurfer.tk%3A6969&amp;tr=udp%3A%2F%2Fexodus.desync.com%3A6969","seeders":0,"leechers":1,"uploader":"XXXmegathor","files":1,"time":1406090879,"description":"PublicAgent.E211.Meggie.XXX.1080p.MOVKTR\n\nSCREENIES &lt;a href=&quot;\nhttp://xxxtrapics.com/image/Me&quot; rel=&quot;nofollow&quot; target=&quot;_NEW&quot;&gt;\nhttp://xxxtrapics.com/image/Me&lt;/a&gt;\n\n\nDuration : 30mn 48s\nBit rate mode : Variable\nBit rate : 5 911 Kbps\nWidth : 1 888 pixels\nOriginal width : 1 920 pixels\nHeight : 1 062 pixels\nOriginal height : 1 080 pixels\nDisplay aspect ratio : 16:9\nFrame rate mode : Constant\nFrame rate : 25.000 fps\nColor space : YUV\nChroma subsampling : 4:2:0\nBit depth : 8 bits\nScan type : Progressive\nBits/(Pixel*Frame) : 0.118\nStream size : 1.27 GiB (98%)\nLanguage : English\nEncoded date : UTC 2014-07-21 19:59:49\nTagged date : UTC 2014-07-21 20:01:36\nColor primaries : BT.709-5, BT.1361, IEC 61966-2-4, SMPTE RP177\nTransfer characteristics : BT.709-5, BT.1361\nMatrix coefficients : BT.709-5, BT.1361, IEC 61966-2-4 709, SMPTE RP177\n\nAudio\nID : 2\nFormat : AAC\nFormat/Info : Advanced Audio Codec\nFormat profile : LC\nCodec ID : 40\nDuration : 30mn 48s\nBit rate mode : Constant\nBit rate : 128 Kbps\nChannel(s) : 2 channels\nChannel positions : Front: L R\nSampling rate : 48.0 KHz\nCompression mode : Lossy\nStream size : 27.7 MiB (2%)\nLanguage : English\nEncoded date : UTC 2014-07-21 19:59:49\nTagged date : UTC 2014-07-21 20:01:36\n\n\n","torrent":{"xt":"urn:btih:105a3f57d0a1d94007c2fa3895dce4b4ee49dd63","amp;dn":"PublicAgent.E211.Meggie.XXX.1080p.MOVKTR.mov","amp;tr":["udp%3A%2F%2Ftracker.openbittorrent.com%3A80","udp%3A%2F%2Fopen.demonii.com%3A1337","udp%3A%2F%2Ftracker.coppersurfer.tk%3A6969","udp%3A%2F%2Fexodus.desync.com%3A6969"],"infoHash":"105a3f57d0a1d94007c2fa3895dce4b4ee49dd63","infoHashBuffer":{"type":"Buffer","data":[16,90,63,87,208,161,217,64,7,194,250,56,149,220,228,180,238,73,221,99]},"announce":[],"urlList":[]}}